<svg version="1.1" xmlns="http://www.w3.org/2000/svg" xmlns:xlink="http://www.w3.org/1999/xlink" width="70" height="70" viewBox="0,0,70,70"><!-- Generated with https://ivantodorovich.github.io/odoo-icon --><defs><linearGradient x1="70" y1="0" x2="0" y2="70" gradientUnits="userSpaceOnUse" id="color-1"><stop offset="0" stop-color="#ff6c68"/><stop offset="1" stop-color="#e53935"/></linearGradient></defs><g fill="none" fill-rule="nonzero" stroke="none" stroke-width="1" stroke-linecap="butt" stroke-linejoin="miter" stroke-miterlimit="10" stroke-dasharray="" stroke-dashoffset="0" font-family="none" font-weight="none" font-size="none" text-anchor="none" style="mix-blend-mode: normal"><path d="M3.5,70c-1.933,0 -3.5,-1.567 -3.5,-3.5v-63c0,-1.933 1.567,-3.5 3.5,-3.5h63c1.933,0 3.5,1.567 3.5,3.5v63c0,1.933 -1.567,3.5 -3.5,3.5z" id="box" fill="url(#color-1)"/><path d="M65,1h-61c-1.95033,0 -3.2667,0.63396 -3.9491,1.90189c0.28378,-1.64806 1.72001,-2.90189 3.4491,-2.90189h63c1.72965,0 3.16627,1.25466 3.44938,2.90352c-0.69803,-1.26902 -2.34782,-1.90352 -4.94938,-1.90352z" id="topBoxShadow" fill="#ffffff" opacity="0.383"/><path d="M4,69h61c2.66667,0 4.33333,-1 5,-3v0.5c0,1.933 -1.567,3.5 -3.5,3.5h-63c-1.933,0 -3.5,-1.567 -3.5,-3.5c0,-0.1611 0,-0.32777 0,-0.5c0.66667,2 2,3 4,3z" id="bottomBoxShadow" fill="#000000" opacity="0.383"/><path d="M45.98676,5.50389c-2.41958,0.05551 -5.22301,0.80291 -7.0211,1.89626c-2.43312,1.51105 -4.24475,3.84668 -5.07745,6.82139c3.29222,1.333 6.83628,4.33276 10.52522,9.35741c1.7981,2.45952 2.69714,5.05105 2.81629,7.36501c-0.22476,2.55227 -0.68783,4.87909 -2.61793,6.06925c5.54052,3.41137 11.54342,3.06746 15.85384,0.47593c3.04106,-1.8245 5.23587,-4.78634 5.85735,-8.48882c0.62148,-3.70248 -0.33037,-8.21126 -3.86089,-13.1858c-5.1702,-7.28174 -11.23945,-10.24088 -16.47532,-10.31061zM30.06658,15.86866c-1.67894,-0.01692 -2.97539,0.71558 -4.01999,2.01135c-2.8955,3.59619 -3.06746,12.48241 3.09386,21.61911l-2.04926,1.38851c-2.26116,-3.34503 -3.78169,-6.70359 -4.65433,-9.8638c-1.99645,1.2829 -3.23941,2.8691 -3.25295,4.73354c-0.0264,2.8955 1.36211,6.1884 3.59619,8.93835c2.24762,2.75063 5.31575,4.91904 8.38321,5.72533c1.54693,0.40958 2.73709,0.06635 3.8873,-0.8327c0.55513,-0.42312 1.071,-0.9918 1.56047,-1.65254c-1.2829,-0.29111 -2.57867,-0.74063 -3.63613,-1.45418l1.30931,-1.93079c5.1438,2.9219 10.27405,0.81984 15.40431,-2.96185c-2.85624,-0.56867 -5.72533,-1.83804 -8.39607,-3.9137c-0.81984,-0.09275 -1.66608,-0.34391 -2.52519,-0.75349c-2.43312,-1.15021 -5.09099,-3.51698 -7.99936,-7.47062l1.99645,-1.46772c2.74995,3.75528 5.1966,5.81808 7.06104,6.70359c1.86444,0.88618 2.96185,0.67429 3.72888,0.05281c0.76703,-0.60794 1.29577,-1.90438 1.20302,-3.66254c-0.07921,-1.77169 -0.8063,-3.92724 -2.34037,-6.02931c-3.84803,-5.24941 -7.41782,-7.93369 -10.19485,-8.80362c-0.72709,-0.19159 -1.49412,-0.36219 -2.15555,-0.37438zM17.01618,41.82595l-2.31396,0.85978c1.63968,4.49591 6.84914,7.94655 12.32331,8.72712c-3.47772,-2.72355 -8.38321,-5.64613 -10.00935,-9.58623zM12.21494,46.63937l-2.32073,0.84624c1.81434,4.94544 7.92827,8.64724 13.98398,8.88554l0.10561,-2.47238c-5.06391,-0.19836 -10.47918,-3.74174 -11.76953,-7.2594zM7.40964,51.43858l-2.32073,0.84624c1.81434,4.9583 7.92827,8.64724 13.9894,8.89908l0.10561,-2.47238c-4.46951,-0.9918 -10.19485,-3.41137 -11.77495,-7.27227zM3.5,57.91809v3.70248c2.79666,2.52519 6.78212,4.20481 10.77909,4.36322l0.09275,-2.47238c-4.07618,-0.7799 -8.64859,-2.59153 -10.87184,-5.59332zM3.5,66.69802v1.7981h6.38947c-2.33766,-0.27757 -4.59882,-0.87264 -6.38879,-1.7981z" id="shadow" fill="#000000" opacity="0.3"/><path d="M36.87461,7.05566c0.62883,-0.62883 1.3295,-1.18256 2.09105,-1.65551c1.7981,-1.09334 4.60153,-1.84075 7.0211,-1.89626c5.23587,0.06973 11.30512,3.02887 16.47532,10.31061c3.53052,4.97455 4.48237,9.48333 3.86089,13.1858c-0.43553,2.5947 -1.64376,4.82565 -3.37444,6.55633l-36.44337,36.44337h-23.00517c-1.933,0 -3.5,-1.567 -3.5,-3.5l0,-24.63033l26.53314,-26.53314c0.95372,-0.95372 2.10321,-1.48104 3.52852,-1.46791z" id="flatShadow" fill="#000000" opacity="0.324"/><path d="M45.98676,3.50389c-2.41958,0.05551 -5.22301,0.80291 -7.0211,1.89626c-2.43312,1.51105 -4.24475,3.84668 -5.07745,6.82139c3.29222,1.333 6.83628,4.33276 10.52522,9.35741c1.7981,2.45952 2.69714,5.05105 2.81629,7.36501c-0.22476,2.55227 -0.68783,4.87909 -2.61793,6.06925c5.54052,3.41137 11.54342,3.06746 15.85384,0.47593c3.04106,-1.8245 5.23587,-4.78634 5.85735,-8.48882c0.62148,-3.70248 -0.33037,-8.21126 -3.86089,-13.1858c-5.1702,-7.28174 -11.23945,-10.24088 -16.47532,-10.31061zM30.06658,13.86866c-1.67894,-0.01692 -2.97539,0.71558 -4.01999,2.01135c-2.8955,3.59619 -3.06746,12.48241 3.09386,21.61911l-2.04926,1.38851c-2.26116,-3.34503 -3.78169,-6.70359 -4.65433,-9.8638c-1.99645,1.2829 -3.23941,2.8691 -3.25295,4.73354c-0.0264,2.8955 1.36211,6.1884 3.59619,8.93835c2.24762,2.75063 5.31575,4.91904 8.38321,5.72533c1.54693,0.40958 2.73709,0.06635 3.8873,-0.8327c0.55513,-0.42312 1.071,-0.9918 1.56047,-1.65254c-1.2829,-0.29111 -2.57867,-0.74063 -3.63613,-1.45418l1.30931,-1.93079c5.1438,2.9219 10.27405,0.81984 15.40431,-2.96185c-2.85624,-0.56867 -5.72533,-1.83804 -8.39607,-3.9137c-0.81984,-0.09275 -1.66608,-0.34391 -2.52519,-0.75349c-2.43312,-1.15021 -5.09099,-3.51698 -7.99936,-7.47062l1.99645,-1.46772c2.74995,3.75528 5.1966,5.81808 7.06104,6.70359c1.86444,0.88618 2.96185,0.67429 3.72888,0.05281c0.76703,-0.60794 1.29577,-1.90438 1.20302,-3.66254c-0.07921,-1.77169 -0.8063,-3.92724 -2.34037,-6.02931c-3.84803,-5.24941 -7.41782,-7.93369 -10.19485,-8.80362c-0.72709,-0.19159 -1.49412,-0.36219 -2.15555,-0.37438zM17.01618,39.82595l-2.31396,0.85978c1.63968,4.49591 6.84914,7.94655 12.32331,8.72712c-3.47772,-2.72355 -8.38321,-5.64613 -10.00935,-9.58623zM12.21494,44.63937l-2.32073,0.84624c1.81434,4.94544 7.92827,8.64724 13.98398,8.88554l0.10561,-2.47238c-5.06391,-0.19836 -10.47918,-3.74174 -11.76953,-7.2594zM7.40964,49.43858l-2.32073,0.84624c1.81434,4.9583 7.92827,8.64724 13.9894,8.89908l0.10561,-2.47238c-4.46951,-0.9918 -10.19485,-3.41137 -11.77495,-7.27227zM3.5,55.91809v3.70248c2.79666,2.52519 6.78212,4.20481 10.77909,4.36322l0.09275,-2.47238c-4.07618,-0.7799 -8.64859,-2.59153 -10.87184,-5.59332zM3.5,64.69802v1.7981h6.38947c-2.33766,-0.27757 -4.59882,-0.87264 -6.38879,-1.7981z" id="icon" fill="#ffffff"/></g></svg>